<?xml version="1.0" encoding="UTF-8"?>
<svg xmlns="http://www.w3.org/2000/svg" xmlns:xlink="http://www.w3.org/1999/xlink" width="500pt" height="500pt" viewBox="0 0 500 500" version="1.1">
<g id="surface1">
<path style=" stroke:none;fill-rule:nonzero;fill:rgb(80%,80%,80%);fill-opacity:1;" d="M 451.164062 206.183594 L 157.714844 206.183594 C 155.121094 206.183594 153.015625 211.03125 153.015625 217.007812 C 153.015625 222.984375 155.121094 227.828125 157.714844 227.828125 L 166.027344 227.828125 L 166.027344 486.730469 C 166.027344 492.707031 168.128906 497.550781 170.726562 497.550781 C 173.320312 497.550781 175.421875 492.707031 175.421875 486.730469 L 175.496094 227.828125 L 411.019531 227.828125 L 432.734375 486.730469 C 432.734375 492.707031 434.835938 497.550781 437.433594 497.550781 C 440.027344 497.550781 442.128906 492.707031 442.128906 486.730469 L 443.496094 227.828125 L 451.164062 227.828125 C 453.761719 227.828125 455.863281 222.984375 455.863281 217.007812 C 455.863281 211.03125 453.761719 206.183594 451.164062 206.183594 Z M 451.164062 206.183594 "/>
<path style=" stroke:none;fill-rule:nonzero;fill:rgb(94.901961%,94.901961%,94.901961%);fill-opacity:1;" d="M 208.582031 157.964844 L 208.582031 203.792969 L 158.734375 203.792969 C 153.242188 204.234375 148.632812 194.332031 148.441406 181.675781 C 148.25 169.019531 152.550781 158.402344 158.042969 157.964844 C 158.273438 157.945312 158.503906 157.945312 158.734375 157.964844 Z M 208.582031 157.964844 "/>
<path style=" stroke:none;fill-rule:nonzero;fill:rgb(42.352941%,38.823529%,100%);fill-opacity:1;" d="M 209.804688 203.441406 C 209.804688 204.414062 209.460938 205.203125 209.039062 205.203125 L 157.847656 205.203125 C 152.0625 205.191406 147.371094 194.382812 147.371094 181.054688 C 147.371094 167.722656 152.0625 156.914062 157.847656 156.90625 L 209.039062 156.90625 C 209.3125 156.902344 209.566406 157.238281 209.703125 157.785156 C 209.839844 158.332031 209.839844 159.003906 209.703125 159.550781 C 209.566406 160.097656 209.3125 160.433594 209.039062 160.429688 L 157.847656 160.429688 C 152.910156 160.449219 148.910156 169.675781 148.910156 181.054688 C 148.910156 192.433594 152.910156 201.660156 157.847656 201.675781 L 209.039062 201.675781 C 209.460938 201.675781 209.804688 202.464844 209.804688 203.441406 Z M 209.804688 203.441406 "/>
<path style=" stroke:none;fill-rule:nonzero;fill:rgb(80%,80%,80%);fill-opacity:1;" d="M 208.582031 168.539062 L 155.015625 168.539062 C 154.933594 168.539062 154.863281 168.382812 154.863281 168.191406 C 154.863281 167.996094 154.929688 167.835938 155.015625 167.835938 L 208.582031 167.835938 C 208.664062 167.835938 208.730469 167.992188 208.730469 168.1875 C 208.730469 168.378906 208.664062 168.539062 208.582031 168.539062 Z M 208.582031 168.539062 "/>
<path style=" stroke:none;fill-rule:nonzero;fill:rgb(80%,80%,80%);fill-opacity:1;" d="M 208.582031 177 L 155.015625 177 C 154.933594 177 154.863281 176.84375 154.863281 176.652344 C 154.863281 176.457031 154.929688 176.296875 155.015625 176.296875 L 208.582031 176.296875 C 208.664062 176.296875 208.730469 176.453125 208.730469 176.648438 C 208.730469 176.839844 208.664062 177 208.582031 177 Z M 208.582031 177 "/>
<path style=" stroke:none;fill-rule:nonzero;fill:rgb(80%,80%,80%);fill-opacity:1;" d="M 208.582031 185.460938 L 155.015625 185.460938 C 154.933594 185.460938 154.863281 185.304688 154.863281 185.113281 C 154.863281 184.917969 154.929688 184.757812 155.015625 184.753906 L 208.582031 184.753906 C 208.664062 184.757812 208.730469 184.914062 208.730469 185.109375 C 208.730469 185.300781 208.664062 185.457031 208.582031 185.460938 Z M 208.582031 185.460938 "/>
<path style=" stroke:none;fill-rule:nonzero;fill:rgb(80%,80%,80%);fill-opacity:1;" d="M 208.582031 193.921875 L 155.015625 193.921875 C 154.933594 193.921875 154.863281 193.765625 154.863281 193.570312 C 154.863281 193.378906 154.929688 193.21875 155.015625 193.214844 L 208.582031 193.214844 C 208.664062 193.21875 208.730469 193.375 208.730469 193.570312 C 208.730469 193.761719 208.664062 193.917969 208.582031 193.921875 Z M 208.582031 193.921875 "/>
<path style=" stroke:none;fill-rule:nonzero;fill:rgb(94.901961%,94.901961%,94.901961%);fill-opacity:1;" d="M 199.183594 109.679688 L 199.183594 155.507812 L 149.339844 155.507812 C 143.84375 155.949219 139.238281 146.046875 139.046875 133.390625 C 138.855469 120.734375 143.152344 110.121094 148.648438 109.679688 C 148.878906 109.660156 149.109375 109.660156 149.339844 109.679688 Z M 199.183594 109.679688 "/>
<path style=" stroke:none;fill-rule:nonzero;fill:rgb(24.705882%,23.921569%,33.72549%);fill-opacity:1;" d="M 200.410156 155.15625 C 200.410156 156.128906 200.066406 156.917969 199.644531 156.917969 L 148.453125 156.917969 C 142.660156 156.917969 137.96875 146.105469 137.96875 132.769531 C 137.96875 119.433594 142.660156 108.621094 148.453125 108.621094 L 199.644531 108.621094 C 200.066406 108.621094 200.410156 109.410156 200.410156 110.382812 C 200.410156 111.359375 200.066406 112.148438 199.644531 112.148438 L 148.453125 112.148438 C 143.507812 112.148438 139.5 121.378906 139.5 132.769531 C 139.5 144.160156 143.507812 153.394531 148.453125 153.394531 L 199.644531 153.394531 C 200.066406 153.394531 200.410156 154.183594 200.410156 155.15625 Z M 200.410156 155.15625 "/>
<path style=" stroke:none;fill-rule:nonzero;fill:rgb(80%,80%,80%);fill-opacity:1;" d="M 199.183594 120.253906 L 145.621094 120.253906 C 145.535156 120.257812 145.46875 120.101562 145.464844 119.90625 C 145.464844 119.710938 145.535156 119.554688 145.617188 119.550781 L 199.183594 119.550781 C 199.269531 119.550781 199.335938 119.710938 199.335938 119.902344 C 199.335938 120.097656 199.269531 120.253906 199.183594 120.253906 Z M 199.183594 120.253906 "/>
<path style=" stroke:none;fill-rule:nonzero;fill:rgb(80%,80%,80%);fill-opacity:1;" d="M 199.183594 128.714844 L 145.621094 128.714844 C 145.535156 128.71875 145.46875 128.5625 145.464844 128.367188 C 145.464844 128.171875 145.535156 128.015625 145.617188 128.011719 L 199.183594 128.011719 C 199.269531 128.011719 199.335938 128.171875 199.335938 128.363281 C 199.335938 128.558594 199.269531 128.714844 199.183594 128.714844 Z M 199.183594 128.714844 "/>
<path style=" stroke:none;fill-rule:nonzero;fill:rgb(80%,80%,80%);fill-opacity:1;" d="M 199.183594 137.175781 L 145.621094 137.175781 C 145.535156 137.179688 145.46875 137.023438 145.464844 136.828125 C 145.464844 136.632812 145.535156 136.472656 145.617188 136.472656 L 199.183594 136.472656 C 199.269531 136.472656 199.335938 136.632812 199.335938 136.824219 C 199.335938 137.019531 199.269531 137.175781 199.183594 137.175781 Z M 199.183594 137.175781 "/>
<path style=" stroke:none;fill-rule:nonzero;fill:rgb(80%,80%,80%);fill-opacity:1;" d="M 199.183594 145.636719 L 145.621094 145.636719 C 145.535156 145.640625 145.46875 145.484375 145.464844 145.289062 C 145.464844 145.09375 145.535156 144.933594 145.617188 144.933594 L 199.183594 144.933594 C 199.269531 144.933594 199.335938 145.09375 199.335938 145.285156 C 199.335938 145.480469 199.269531 145.636719 199.183594 145.636719 Z M 199.183594 145.636719 "/>
<path style=" stroke:none;fill-rule:nonzero;fill:rgb(80%,80%,80%);fill-opacity:1;" d="M 257.167969 368.355469 L 257.167969 328.394531 C 257.167969 324.71875 255.875 321.738281 254.277344 321.734375 L 188.503906 321.734375 C 186.90625 321.738281 185.613281 324.71875 185.613281 328.394531 L 185.613281 368.355469 Z M 257.167969 368.355469 "/>
<path style=" stroke:none;fill-rule:nonzero;fill:rgb(80%,80%,80%);fill-opacity:1;" d="M 185.613281 383.339844 L 257.167969 383.339844 L 257.167969 434.953125 L 185.613281 434.953125 Z M 185.613281 383.339844 "/>
<path style=" stroke:none;fill-rule:nonzero;fill:rgb(80%,80%,80%);fill-opacity:1;" d="M 185.613281 449.9375 L 185.613281 489.898438 C 185.613281 493.574219 186.90625 496.554688 188.503906 496.554688 L 254.277344 496.554688 C 255.875 496.554688 257.167969 493.574219 257.167969 489.898438 L 257.167969 449.9375 Z M 185.613281 449.9375 "/>
<path style=" stroke:none;fill-rule:nonzero;fill:rgb(100%,100%,100%);fill-opacity:1;" d="M 223.199219 346.710938 C 223.199219 349.46875 222.226562 351.707031 221.03125 351.707031 C 219.832031 351.707031 218.863281 349.46875 218.863281 346.710938 C 218.863281 343.953125 219.832031 341.714844 221.03125 341.714844 C 222.226562 341.714844 223.199219 343.953125 223.199219 346.710938 Z M 223.199219 346.710938 "/>
<path style=" stroke:none;fill-rule:nonzero;fill:rgb(100%,100%,100%);fill-opacity:1;" d="M 223.199219 413.308594 C 223.199219 416.066406 222.226562 418.304688 221.03125 418.304688 C 219.832031 418.304688 218.863281 416.066406 218.863281 413.308594 C 218.863281 410.550781 219.832031 408.3125 221.03125 408.3125 C 222.226562 408.3125 223.199219 410.550781 223.199219 413.308594 Z M 223.199219 413.308594 "/>
<path style=" stroke:none;fill-rule:nonzero;fill:rgb(100%,100%,100%);fill-opacity:1;" d="M 223.3125 478.496094 C 223.3125 481.253906 222.34375 483.492188 221.144531 483.492188 C 219.949219 483.492188 218.976562 481.253906 218.976562 478.496094 C 218.976562 475.738281 219.949219 473.5 221.144531 473.5 C 222.34375 473.5 223.3125 475.738281 223.3125 478.496094 Z M 223.3125 478.496094 "/>
<path style=" stroke:none;fill-rule:nonzero;fill:rgb(94.901961%,94.901961%,94.901961%);fill-opacity:1;" d="M 249.054688 276.175781 L 249.054688 322.003906 L 199.210938 322.003906 C 193.71875 322.4375 189.117188 312.535156 188.925781 299.886719 C 188.734375 287.238281 193.027344 276.625 198.519531 276.175781 C 198.75 276.15625 198.980469 276.15625 199.210938 276.175781 Z M 249.054688 276.175781 "/>
<path style=" stroke:none;fill-rule:nonzero;fill:rgb(24.705882%,23.921569%,33.72549%);fill-opacity:1;" d="M 250.28125 321.652344 C 250.28125 322.625 249.9375 323.414062 249.515625 323.414062 L 198.324219 323.414062 C 192.535156 323.417969 187.839844 312.613281 187.839844 299.28125 C 187.835938 285.945312 192.523438 275.128906 198.3125 275.117188 L 249.515625 275.117188 C 249.789062 275.117188 250.042969 275.453125 250.179688 275.996094 C 250.316406 276.542969 250.316406 277.214844 250.179688 277.761719 C 250.042969 278.308594 249.789062 278.644531 249.515625 278.644531 L 198.324219 278.644531 C 193.382812 278.65625 189.382812 287.886719 189.382812 299.265625 C 189.382812 310.644531 193.382812 319.875 198.324219 319.890625 L 249.515625 319.890625 C 249.9375 319.890625 250.28125 320.679688 250.28125 321.652344 Z M 250.28125 321.652344 "/>
<path style=" stroke:none;fill-rule:nonzero;fill:rgb(80%,80%,80%);fill-opacity:1;" d="M 249.054688 286.75 L 195.492188 286.75 C 195.410156 286.753906 195.339844 286.597656 195.339844 286.402344 C 195.339844 286.207031 195.40625 286.046875 195.488281 286.046875 L 249.054688 286.046875 C 249.140625 286.046875 249.207031 286.207031 249.207031 286.398438 C 249.207031 286.589844 249.140625 286.75 249.054688 286.75 Z M 249.054688 286.75 "/>
<path style=" stroke:none;fill-rule:nonzero;fill:rgb(80%,80%,80%);fill-opacity:1;" d="M 249.054688 295.210938 L 195.492188 295.210938 C 195.410156 295.210938 195.339844 295.058594 195.339844 294.863281 C 195.339844 294.667969 195.40625 294.507812 195.488281 294.507812 L 249.054688 294.507812 C 249.140625 294.507812 249.207031 294.664062 249.207031 294.859375 C 249.207031 295.050781 249.140625 295.210938 249.054688 295.210938 Z M 249.054688 295.210938 "/>
<path style=" stroke:none;fill-rule:nonzero;fill:rgb(80%,80%,80%);fill-opacity:1;" d="M 249.054688 303.671875 L 195.492188 303.671875 C 195.410156 303.671875 195.339844 303.515625 195.339844 303.324219 C 195.339844 303.128906 195.40625 302.96875 195.488281 302.96875 L 249.054688 302.96875 C 249.140625 302.96875 249.207031 303.125 249.207031 303.320312 C 249.207031 303.511719 249.140625 303.671875 249.054688 303.671875 Z M 249.054688 303.671875 "/>
<path style=" stroke:none;fill-rule:nonzero;fill:rgb(80%,80%,80%);fill-opacity:1;" d="M 249.054688 312.132812 L 195.492188 312.132812 C 195.410156 312.132812 195.339844 311.976562 195.339844 311.785156 C 195.339844 311.589844 195.40625 311.429688 195.488281 311.429688 L 249.054688 311.429688 C 249.140625 311.429688 249.207031 311.585938 249.207031 311.78125 C 249.207031 311.972656 249.140625 312.132812 249.054688 312.132812 Z M 249.054688 312.132812 "/>
<path style=" stroke:none;fill-rule:nonzero;fill:rgb(24.705882%,23.921569%,33.72549%);fill-opacity:1;" d="M 190.515625 94.390625 L 167.804688 94.390625 C 167.589844 94.390625 167.378906 94.503906 167.183594 94.722656 L 161.453125 101.332031 C 161.066406 101.710938 160.816406 102.582031 160.816406 103.546875 C 160.816406 104.511719 161.066406 105.386719 161.453125 105.761719 L 167.183594 112.371094 C 167.378906 112.59375 167.589844 112.707031 167.804688 112.707031 L 190.515625 112.707031 C 191.167969 112.792969 191.726562 111.65625 191.773438 110.15625 L 191.773438 96.9375 C 191.726562 95.441406 191.167969 94.304688 190.515625 94.390625 Z M 190.515625 94.390625 "/>
<path style=" stroke:none;fill-rule:nonzero;fill:rgb(42.352941%,38.823529%,100%);fill-opacity:1;" d="M 191.773438 96.9375 L 191.773438 110.15625 C 191.726562 111.65625 191.167969 112.792969 190.515625 112.707031 L 185.992188 112.707031 L 185.992188 94.390625 L 190.515625 94.390625 C 191.167969 94.304688 191.726562 95.441406 191.773438 96.9375 Z M 191.773438 96.9375 "/>
<path style=" stroke:none;fill-rule:nonzero;fill:rgb(90.196078%,90.196078%,90.196078%);fill-opacity:1;" d="M 54.363281 353.425781 C 60.3125 358.242188 66.917969 355.558594 71.792969 346.351562 C 77.898438 334.550781 79.8125 315.105469 81.367188 297.101562 C 82.902344 279.351562 84.4375 261.597656 85.972656 243.847656 L 76.332031 259.144531 C 69.394531 270.144531 62.304688 281.496094 57.503906 297.429688 C 52.699219 313.359375 50.605469 335.109375 54.464844 352.351562 "/>
<path style=" stroke:none;fill-rule:nonzero;fill:rgb(94.901961%,94.901961%,94.901961%);fill-opacity:1;" d="M 55.1875 417.902344 C 54.210938 401.523438 53.207031 384.9375 53.894531 368.382812 C 54.5 353.683594 56.449219 339.324219 60.410156 327.550781 C 62.515625 321.3125 65.074219 315.96875 67.976562 311.757812 C 68.734375 310.660156 69.429688 313.421875 68.675781 314.515625 C 63.65625 321.824219 59.773438 332.617188 57.589844 345.335938 C 55.175781 359.480469 54.785156 374.898438 55.203125 389.921875 C 55.453125 399.011719 55.988281 408.035156 56.523438 417.050781 C 56.613281 417.898438 56.402344 418.757812 56.039062 419.015625 C 55.671875 419.246094 55.292969 418.746094 55.1875 417.902344 Z M 55.1875 417.902344 "/>
<path style=" stroke:none;fill-rule:nonzero;fill:rgb(90.196078%,90.196078%,90.196078%);fill-opacity:1;" d="M 64.589844 388.921875 C 67.140625 397.851562 71.527344 403.066406 76.164062 402.683594 C 82.027344 402.042969 86.910156 392.621094 91.308594 383.675781 L 104.316406 357.222656 L 95.707031 356.273438 C 89.515625 355.589844 83.164062 354.953125 77.269531 359.351562 C 71.371094 363.75 65.933594 374.332031 64.855469 388.394531 "/>
<path style=" stroke:none;fill-rule:nonzero;fill:rgb(94.901961%,94.901961%,94.901961%);fill-opacity:1;" d="M 52.429688 427.316406 C 57.128906 408.167969 62.578125 386.886719 72.3125 380.082031 C 75.019531 378.199219 77.859375 377.523438 80.675781 378.09375 C 81.566406 378.269531 81.34375 381.421875 80.457031 381.246094 C 75.734375 380.34375 71.019531 383.21875 67.109375 389.382812 C 63.347656 395.28125 60.417969 403.484375 57.9375 412.183594 C 56.417969 417.515625 55.058594 423.070312 53.695312 428.617188 C 53.261719 430.386719 51.988281 429.109375 52.429688 427.316406 Z M 52.429688 427.316406 "/>
<path style=" stroke:none;fill-rule:nonzero;fill:rgb(94.901961%,94.901961%,94.901961%);fill-opacity:1;" d="M 44.902344 447.46875 C 45.226562 438.859375 47.601562 431.375 51.066406 428.0625 L 51.066406 416.992188 L 59.128906 416.992188 L 59.128906 428.410156 C 62.417969 431.882812 64.644531 439.164062 64.957031 447.46875 L 66.851562 498.222656 L 43.007812 498.222656 Z M 44.902344 447.46875 "/>
<path style=" stroke:none;fill-rule:nonzero;fill:rgb(90.196078%,90.196078%,90.196078%);fill-opacity:1;" d="M 319.015625 205.144531 L 316.621094 202.820312 L 314.976562 175.128906 L 293.070312 175.128906 L 291.289062 202.707031 L 289.140625 205.175781 C 288.929688 205.421875 288.820312 205.964844 288.875 206.496094 C 288.929688 207.027344 289.132812 207.398438 289.371094 207.398438 L 318.820312 207.398438 C 319.0625 207.398438 319.269531 207.007812 319.320312 206.457031 C 319.367188 205.910156 319.242188 205.363281 319.015625 205.144531 Z M 319.015625 205.144531 "/>
<path style=" stroke:none;fill-rule:nonzero;fill:rgb(80%,80%,80%);fill-opacity:1;" d="M 357.945312 178.816406 L 250.34375 178.816406 C 249.167969 178.808594 248.214844 176.613281 248.214844 173.902344 L 248.214844 138.953125 L 360.070312 138.953125 L 360.070312 173.902344 C 360.070312 176.613281 359.117188 178.808594 357.945312 178.816406 Z M 357.945312 178.816406 "/>
<path style=" stroke:none;fill-rule:nonzero;fill:rgb(24.705882%,23.921569%,33.72549%);fill-opacity:1;" d="M 360.183594 155.472656 L 248.117188 155.472656 L 248.117188 5.917969 C 248.117188 2.652344 249.269531 0.00390625 250.6875 0 L 357.613281 0 C 359.03125 0.00390625 360.179688 2.652344 360.183594 5.917969 Z M 360.183594 155.472656 "/>
<path style=" stroke:none;fill-rule:nonzero;fill:rgb(100%,100%,100%);fill-opacity:1;" d="M 353.488281 144.617188 L 254.808594 144.617188 C 253.714844 144.613281 252.832031 142.574219 252.828125 140.054688 L 252.828125 15.417969 C 252.832031 12.898438 253.714844 10.855469 254.808594 10.855469 L 353.488281 10.855469 C 354.582031 10.855469 355.46875 12.898438 355.472656 15.417969 L 355.472656 140.054688 C 355.46875 142.574219 354.582031 144.613281 353.488281 144.617188 Z M 353.488281 144.617188 "/>
<path style=" stroke:none;fill-rule:nonzero;fill:rgb(100%,71.372549%,71.372549%);fill-opacity:1;" d="M 327.5 188.59375 C 328.789062 185.851562 330.539062 184.5625 332.28125 185.078125 C 334.023438 185.59375 335.574219 187.859375 336.519531 191.265625 L 349.867188 185.800781 L 353.289062 203.675781 L 334.394531 210.785156 C 331.746094 214.140625 328.425781 212.40625 326.667969 206.742188 C 324.910156 201.082031 325.265625 193.285156 327.5 188.59375 Z M 327.5 188.59375 "/>
<path style=" stroke:none;fill-rule:nonzero;fill:rgb(42.352941%,38.823529%,100%);fill-opacity:1;" d="M 339.855469 211.417969 L 353.773438 211.015625 L 355.535156 210.960938 L 383.84375 210.140625 C 383.84375 210.140625 391.53125 193.246094 398.226562 175.851562 L 397.289062 160.21875 C 396.371094 144.875 393.070312 130.820312 387.992188 120.671875 C 378.402344 135.429688 372.84375 164.640625 372.84375 164.640625 L 355.289062 174.3125 L 353.53125 175.277344 L 342.625 181.28125 Z M 339.855469 211.417969 "/>
<path style=" stroke:none;fill-rule:nonzero;fill:rgb(89.411765%,89.411765%,89.411765%);fill-opacity:1;" d="M 411.089844 307.503906 L 385.117188 307.503906 C 385.117188 310.070312 356.722656 312.148438 356.722656 312.148438 C 356.097656 313.238281 355.523438 314.484375 355.019531 315.867188 C 353.503906 320.03125 352.675781 325.292969 352.679688 330.726562 L 352.679688 334.441406 C 352.683594 347.265625 357.195312 357.660156 362.761719 357.664062 L 411.089844 357.664062 C 416.65625 357.652344 421.164062 347.265625 421.171875 334.441406 L 421.171875 330.726562 C 421.164062 317.910156 416.652344 307.523438 411.089844 307.503906 Z M 411.089844 307.503906 "/>
<path style=" stroke:none;fill-rule:nonzero;fill:rgb(89.411765%,89.411765%,89.411765%);fill-opacity:1;" d="M 381.71875 356.742188 L 392.203125 356.742188 L 392.203125 496.140625 L 381.71875 496.140625 Z M 381.71875 356.742188 "/>
<path style=" stroke:none;fill-rule:nonzero;fill:rgb(89.411765%,89.411765%,89.411765%);fill-opacity:1;" d="M 351.878906 495.292969 C 351.878906 497.902344 367.765625 496.304688 387.363281 496.304688 C 406.960938 496.304688 422.847656 497.902344 422.847656 495.292969 C 422.847656 492.683594 406.960938 471.992188 387.363281 471.992188 C 367.765625 471.992188 351.878906 492.683594 351.878906 495.292969 Z M 351.878906 495.292969 "/>
<path style=" stroke:none;fill-rule:nonzero;fill:rgb(100%,71.372549%,71.372549%);fill-opacity:1;" d="M 344.835938 479.367188 L 337.03125 479.363281 L 333.320312 410.035156 L 344.835938 410.039062 Z M 344.835938 479.367188 "/>
<path style=" stroke:none;fill-rule:nonzero;fill:rgb(18.431373%,18.039216%,25.490196%);fill-opacity:1;" d="M 346.824219 496.789062 L 321.664062 496.785156 L 321.664062 496.054688 C 321.664062 483.59375 326.050781 473.496094 331.457031 473.496094 L 346.824219 473.496094 Z M 346.824219 496.789062 "/>
<path style=" stroke:none;fill-rule:nonzero;fill:rgb(100%,71.372549%,71.372549%);fill-opacity:1;" d="M 321.773438 479.367188 L 313.96875 479.363281 L 310.257812 410.035156 L 321.773438 410.039062 Z M 321.773438 479.367188 "/>
<path style=" stroke:none;fill-rule:nonzero;fill:rgb(18.431373%,18.039216%,25.490196%);fill-opacity:1;" d="M 323.761719 496.789062 L 298.601562 496.785156 L 298.601562 496.054688 C 298.601562 483.59375 302.988281 473.496094 308.394531 473.496094 L 323.761719 473.496094 Z M 323.761719 496.789062 "/>
<path style=" stroke:none;fill-rule:nonzero;fill:rgb(100%,71.372549%,71.372549%);fill-opacity:1;" d="M 405.234375 48.984375 C 405.234375 66.242188 399.160156 80.234375 391.667969 80.234375 C 384.175781 80.234375 378.101562 66.242188 378.101562 48.984375 C 378.101562 31.722656 384.175781 17.730469 391.667969 17.730469 C 399.160156 17.730469 405.234375 31.722656 405.234375 48.984375 Z M 405.234375 48.984375 "/>
<path style=" stroke:none;fill-rule:nonzero;fill:rgb(18.431373%,18.039216%,25.490196%);fill-opacity:1;" d="M 413.625 263.109375 C 413.625 263.109375 418.179688 318.558594 400.859375 325.617188 C 383.539062 332.679688 358.535156 337.640625 358.535156 337.640625 L 347.308594 458.308594 L 332.226562 455.207031 C 332.226562 455.207031 334.230469 309.949219 339.164062 298.585938 C 344.097656 287.222656 375.277344 253.195312 375.277344 253.195312 Z M 413.625 263.109375 "/>
<path style=" stroke:none;fill-rule:nonzero;fill:rgb(18.431373%,18.039216%,25.490196%);fill-opacity:1;" d="M 379.800781 239.871094 L 372.222656 257.375 C 372.222656 257.375 317.527344 277.667969 315.417969 306.769531 C 312.234375 350.703125 308.46875 446.242188 308.46875 446.242188 L 324.914062 443.402344 L 331.363281 334.800781 L 357.675781 321.011719 L 387.609375 283.433594 Z M 379.800781 239.871094 "/>
<path style=" stroke:none;fill-rule:nonzero;fill:rgb(18.431373%,18.039216%,25.490196%);fill-opacity:1;" d="M 404.722656 30.328125 C 403.382812 24.507812 401.683594 12.90625 398.980469 10.757812 C 397.476562 9.609375 395.925781 8.847656 394.351562 8.484375 L 389.757812 12.558594 L 392.257812 8.078125 C 391.773438 8.011719 391.285156 7.957031 390.800781 7.914062 L 387.699219 10.660156 L 389.285156 7.816406 C 386.394531 7.75 383.410156 8.441406 381.171875 12.496094 C 379.261719 15.949219 377.371094 29.039062 377.066406 34.585938 C 376.738281 39.894531 376.855469 45.296875 377.402344 50.503906 L 378.1875 52.222656 C 378.464844 50.773438 378.667969 49.257812 378.804688 47.707031 C 379.375 41.84375 380.988281 36.804688 383.25 33.816406 L 383.292969 33.761719 C 384.609375 32.054688 386.207031 32.132812 387.714844 32.257812 L 394.886719 32.851562 C 396.613281 32.996094 398.472656 33.246094 399.816406 35.742188 C 400.671875 37.578125 401.34375 39.824219 401.785156 42.316406 C 402.453125 45.425781 403.761719 57.144531 403.761719 57.144531 C 403.761719 57.144531 404.5 54.933594 404.855469 56.578125 C 405.421875 52.28125 405.765625 47.847656 405.882812 43.363281 C 405.996094 38.859375 405.597656 34.367188 404.722656 30.328125 Z M 404.722656 30.328125 "/>
<path style=" stroke:none;fill-rule:nonzero;fill:rgb(100%,71.372549%,71.372549%);fill-opacity:1;" d="M 452.175781 62.707031 C 450.421875 62.972656 448.8125 65.011719 447.777344 68.277344 C 446.738281 71.542969 446.382812 75.695312 446.804688 79.625 L 435.894531 98.160156 L 439.167969 116.179688 L 454.414062 89.503906 C 457.296875 87.390625 459.035156 80.648438 458.460938 73.8125 C 457.890625 66.976562 455.1875 62.207031 452.175781 62.707031 Z M 452.175781 62.707031 "/>
<path style=" stroke:none;fill-rule:nonzero;fill:rgb(42.352941%,38.823529%,100%);fill-opacity:1;" d="M 450.417969 100.554688 L 423.070312 170.523438 C 423.070312 170.523438 409.988281 160.878906 399.875 150.421875 L 395.332031 118.269531 C 394.273438 110.8125 393.824219 102.96875 394 95.136719 C 408.023438 86.542969 424.335938 118.523438 424.335938 118.523438 L 444.804688 81.582031 Z M 450.417969 100.554688 "/>
<path style=" stroke:none;fill-rule:nonzero;fill:rgb(42.352941%,38.823529%,100%);fill-opacity:1;" d="M 386.601562 268.277344 C 381.722656 264.394531 376.675781 260.378906 371.234375 258.871094 L 371 258.808594 L 371.0625 258.285156 C 376.699219 212.71875 375.292969 183.574219 372.53125 139.789062 C 371.324219 120.390625 375.804688 101.480469 383.535156 93.316406 L 383.570312 93.28125 L 399.113281 91.007812 L 399.148438 91 L 410.453125 98.660156 C 413.796875 100.941406 416.066406 108.078125 416.003906 116.109375 C 415.882812 130.507812 416.140625 146.582031 416.414062 163.605469 C 417.03125 201.785156 417.671875 241.269531 414.050781 266.886719 L 414.03125 267.023438 L 413.984375 267.109375 C 410.65625 273.351562 406.488281 276.726562 402.195312 276.648438 C 397.121094 276.648438 391.945312 272.527344 386.601562 268.277344 Z M 386.601562 268.277344 "/>
<path style=" stroke:none;fill-rule:nonzero;fill:rgb(80%,80%,80%);fill-opacity:1;" d="M 499.445312 499.808594 L 0.722656 499.808594 C 0.324219 499.808594 0 499.0625 0 498.144531 C 0 497.222656 0.324219 496.476562 0.722656 496.476562 L 499.445312 496.476562 C 499.84375 496.476562 500.167969 497.222656 500.167969 498.144531 C 500.167969 499.0625 499.84375 499.808594 499.445312 499.808594 Z M 499.445312 499.808594 "/>
</g>
</svg>
